<svg width="461" height="147" viewBox="0 0 461 147" fill="none" xmlns="http://www.w3.org/2000/svg">
<path d="M162.148 81.54C159.548 81.54 157.208 81.08 155.128 80.16C153.088 79.2 151.468 77.92 150.268 76.32C149.068 74.68 148.428 72.86 148.348 70.86H155.428C155.548 72.26 156.208 73.44 157.408 74.4C158.648 75.32 160.188 75.78 162.028 75.78C163.948 75.78 165.428 75.42 166.468 74.7C167.548 73.94 168.088 72.98 168.088 71.82C168.088 70.58 167.488 69.66 166.288 69.06C165.128 68.46 163.268 67.8 160.708 67.08C158.228 66.4 156.208 65.74 154.648 65.1C153.088 64.46 151.728 63.48 150.568 62.16C149.448 60.84 148.888 59.1 148.888 56.94C148.888 55.18 149.408 53.58 150.448 52.14C151.488 50.66 152.968 49.5 154.888 48.66C156.848 47.82 159.088 47.4 161.608 47.4C165.368 47.4 168.388 48.36 170.668 50.28C172.988 52.16 174.228 54.74 174.388 58.02H167.548C167.428 56.54 166.828 55.36 165.748 54.48C164.668 53.6 163.208 53.16 161.368 53.16C159.568 53.16 158.188 53.5 157.228 54.18C156.268 54.86 155.788 55.76 155.788 56.88C155.788 57.76 156.108 58.5 156.748 59.1C157.388 59.7 158.168 60.18 159.088 60.54C160.008 60.86 161.368 61.28 163.168 61.8C165.568 62.44 167.528 63.1 169.048 63.78C170.608 64.42 171.948 65.38 173.068 66.66C174.188 67.94 174.768 69.64 174.808 71.76C174.808 73.64 174.288 75.32 173.248 76.8C172.208 78.28 170.728 79.44 168.808 80.28C166.928 81.12 164.708 81.54 162.148 81.54ZM189.039 52.8C190.199 51.28 191.779 50 193.779 48.96C195.779 47.92 198.039 47.4 200.559 47.4C203.439 47.4 206.059 48.12 208.419 49.56C210.819 50.96 212.699 52.94 214.059 55.5C215.419 58.06 216.099 61 216.099 64.32C216.099 67.64 215.419 70.62 214.059 73.26C212.699 75.86 210.819 77.9 208.419 79.38C206.059 80.82 203.439 81.54 200.559 81.54C198.039 81.54 195.799 81.04 193.839 80.04C191.879 79 190.279 77.72 189.039 76.2V96.72H182.199V47.94H189.039V52.8ZM209.139 64.32C209.139 62.04 208.659 60.08 207.699 58.44C206.779 56.76 205.539 55.5 203.979 54.66C202.459 53.78 200.819 53.34 199.059 53.34C197.339 53.34 195.699 53.78 194.139 54.66C192.619 55.54 191.379 56.82 190.419 58.5C189.499 60.18 189.039 62.16 189.039 64.44C189.039 66.72 189.499 68.72 190.419 70.44C191.379 72.12 192.619 73.4 194.139 74.28C195.699 75.16 197.339 75.6 199.059 75.6C200.819 75.6 202.459 75.16 203.979 74.28C205.539 73.36 206.779 72.04 207.699 70.32C208.659 68.6 209.139 66.6 209.139 64.32ZM237.203 81.54C234.083 81.54 231.263 80.84 228.743 79.44C226.223 78 224.243 76 222.803 73.44C221.363 70.84 220.643 67.84 220.643 64.44C220.643 61.08 221.383 58.1 222.863 55.5C224.343 52.9 226.363 50.9 228.923 49.5C231.483 48.1 234.343 47.4 237.503 47.4C240.663 47.4 243.523 48.1 246.083 49.5C248.643 50.9 250.663 52.9 252.143 55.5C253.623 58.1 254.363 61.08 254.363 64.44C254.363 67.8 253.603 70.78 252.083 73.38C250.563 75.98 248.483 78 245.843 79.44C243.243 80.84 240.363 81.54 237.203 81.54ZM237.203 75.6C238.963 75.6 240.603 75.18 242.123 74.34C243.683 73.5 244.943 72.24 245.903 70.56C246.863 68.88 247.343 66.84 247.343 64.44C247.343 62.04 246.883 60.02 245.963 58.38C245.043 56.7 243.823 55.44 242.303 54.6C240.783 53.76 239.143 53.34 237.383 53.34C235.623 53.34 233.983 53.76 232.463 54.6C230.983 55.44 229.803 56.7 228.923 58.38C228.043 60.02 227.603 62.04 227.603 64.44C227.603 68 228.503 70.76 230.303 72.72C232.143 74.64 234.443 75.6 237.203 75.6ZM269.105 53.52V71.82C269.105 73.06 269.385 73.96 269.945 74.52C270.545 75.04 271.545 75.3 272.945 75.3H277.145V81H271.745C268.665 81 266.305 80.28 264.665 78.84C263.025 77.4 262.205 75.06 262.205 71.82V53.52H258.305V47.94H262.205V39.72H269.105V47.94H277.145V53.52H269.105ZM296.529 64.5L311.769 81H302.529L290.289 66.78V81H283.449V36.6H290.289V62.4L302.289 47.94H311.769L296.529 64.5ZM333.352 47.4C335.952 47.4 338.272 47.94 340.312 49.02C342.392 50.1 344.012 51.7 345.172 53.82C346.332 55.94 346.912 58.5 346.912 61.5V81H340.132V62.52C340.132 59.56 339.392 57.3 337.912 55.74C336.432 54.14 334.412 53.34 331.852 53.34C329.292 53.34 327.252 54.14 325.732 55.74C324.252 57.3 323.512 59.56 323.512 62.52V81H316.672V47.94H323.512V51.72C324.632 50.36 326.052 49.3 327.772 48.54C329.532 47.78 331.392 47.4 333.352 47.4ZM353.357 64.32C353.357 61 354.037 58.06 355.397 55.5C356.797 52.94 358.677 50.96 361.037 49.56C363.437 48.12 366.077 47.4 368.957 47.4C371.557 47.4 373.817 47.92 375.737 48.96C377.697 49.96 379.257 51.22 380.417 52.74V47.94H387.317V81H380.417V76.08C379.257 77.64 377.677 78.94 375.677 79.98C373.677 81.02 371.397 81.54 368.837 81.54C365.997 81.54 363.397 80.82 361.037 79.38C358.677 77.9 356.797 75.86 355.397 73.26C354.037 70.62 353.357 67.64 353.357 64.32ZM380.417 64.44C380.417 62.16 379.937 60.18 378.977 58.5C378.057 56.82 376.837 55.54 375.317 54.66C373.797 53.78 372.157 53.34 370.397 53.34C368.637 53.34 366.997 53.78 365.477 54.66C363.957 55.5 362.717 56.76 361.757 58.44C360.837 60.08 360.377 62.04 360.377 64.32C360.377 66.6 360.837 68.6 361.757 70.32C362.717 72.04 363.957 73.36 365.477 74.28C367.037 75.16 368.677 75.6 370.397 75.6C372.157 75.6 373.797 75.16 375.317 74.28C376.837 73.4 378.057 72.12 378.977 70.44C379.937 68.72 380.417 66.72 380.417 64.44ZM394.021 64.44C394.021 61.04 394.701 58.06 396.061 55.5C397.461 52.9 399.381 50.9 401.821 49.5C404.261 48.1 407.061 47.4 410.221 47.4C414.221 47.4 417.521 48.36 420.121 50.28C422.761 52.16 424.541 54.86 425.461 58.38H418.081C417.481 56.74 416.521 55.46 415.201 54.54C413.881 53.62 412.221 53.16 410.221 53.16C407.421 53.16 405.181 54.16 403.501 56.16C401.861 58.12 401.041 60.88 401.041 64.44C401.041 68 401.861 70.78 403.501 72.78C405.181 74.78 407.421 75.78 410.221 75.78C414.181 75.78 416.801 74.04 418.081 70.56H425.461C424.501 73.92 422.701 76.6 420.061 78.6C417.421 80.56 414.141 81.54 410.221 81.54C407.061 81.54 404.261 80.84 401.821 79.44C399.381 78 397.461 76 396.061 73.44C394.701 70.84 394.021 67.84 394.021 64.44ZM445.357 64.5L460.597 81H451.357L439.117 66.78V81H432.277V36.6H439.117V62.4L451.117 47.94H460.597L445.357 64.5Z" fill="white"/>
<path d="M131 62.5C131 46.0251 113.823 35.1795 98.9484 42.2626L68 57V68L98.9484 82.7374C113.823 89.8205 131 78.9749 131 62.5Z" fill="white"/>
<path d="M111 80C102.716 80 96 72.165 96 62.5C96 52.835 102.716 45 111 45C119.284 45 126 52.835 126 62.5C126 72.165 119.284 80 111 80Z" fill="#202020"/>
<path d="M92 62.5C92 46.0251 74.823 35.1795 59.9484 42.2626L30.7104 56.1855C29.6655 56.6831 29 57.7372 29 58.8944V66.1056C29 67.2628 29.6656 68.3169 30.7104 68.8145L59.9484 82.7374C74.823 89.8205 92 78.9749 92 62.5Z" fill="white"/>
<path d="M73 80C64.7157 80 58 72.165 58 62.5C58 52.835 64.7157 45 73 45C81.2843 45 88 52.835 88 62.5C88 72.165 81.2843 80 73 80Z" fill="#202020"/>
<path d="M74.7873 66.42C73.5473 66.42 72.5073 66 71.6673 65.16C70.8273 64.32 70.4073 63.28 70.4073 62.04C70.4073 60.8 70.8273 59.76 71.6673 58.92C72.5073 58.08 73.5473 57.66 74.7873 57.66C75.9873 57.66 77.0073 58.08 77.8473 58.92C78.6873 59.76 79.1073 60.8 79.1073 62.04C79.1073 63.28 78.6873 64.32 77.8473 65.16C77.0073 66 75.9873 66.42 74.7873 66.42Z" fill="white"/>
<path d="M113.787 67.42C112.547 67.42 111.507 67 110.667 66.16C109.827 65.32 109.407 64.28 109.407 63.04C109.407 61.8 109.827 60.76 110.667 59.92C111.507 59.08 112.547 58.66 113.787 58.66C114.987 58.66 116.007 59.08 116.847 59.92C117.687 60.76 118.107 61.8 118.107 63.04C118.107 64.28 117.687 65.32 116.847 66.16C116.007 67 114.987 67.42 113.787 67.42Z" fill="white"/>
<path d="M100.71 112.605V115.195H94.06V137H90.875V115.195H84.19V112.605H100.71ZM103.441 127.34C103.441 125.38 103.837 123.665 104.631 122.195C105.424 120.702 106.509 119.547 107.886 118.73C109.286 117.913 110.837 117.505 112.541 117.505C114.221 117.505 115.679 117.867 116.916 118.59C118.152 119.313 119.074 120.223 119.681 121.32V117.82H122.901V137H119.681V133.43C119.051 134.55 118.106 135.483 116.846 136.23C115.609 136.953 114.162 137.315 112.506 137.315C110.802 137.315 109.262 136.895 107.886 136.055C106.509 135.215 105.424 134.037 104.631 132.52C103.837 131.003 103.441 129.277 103.441 127.34ZM119.681 127.375C119.681 125.928 119.389 124.668 118.806 123.595C118.222 122.522 117.429 121.705 116.426 121.145C115.446 120.562 114.361 120.27 113.171 120.27C111.981 120.27 110.896 120.55 109.916 121.11C108.936 121.67 108.154 122.487 107.571 123.56C106.987 124.633 106.696 125.893 106.696 127.34C106.696 128.81 106.987 130.093 107.571 131.19C108.154 132.263 108.936 133.092 109.916 133.675C110.896 134.235 111.981 134.515 113.171 134.515C114.361 134.515 115.446 134.235 116.426 133.675C117.429 133.092 118.222 132.263 118.806 131.19C119.389 130.093 119.681 128.822 119.681 127.375ZM131.468 111.1V137H128.283V111.1H131.468ZM154.396 126.675C154.396 127.282 154.361 127.923 154.291 128.6H138.961C139.078 130.49 139.72 131.972 140.886 133.045C142.076 134.095 143.511 134.62 145.191 134.62C146.568 134.62 147.711 134.305 148.621 133.675C149.555 133.022 150.208 132.158 150.581 131.085H154.011C153.498 132.928 152.471 134.433 150.931 135.6C149.391 136.743 147.478 137.315 145.191 137.315C143.371 137.315 141.738 136.907 140.291 136.09C138.868 135.273 137.748 134.118 136.931 132.625C136.115 131.108 135.706 129.358 135.706 127.375C135.706 125.392 136.103 123.653 136.896 122.16C137.69 120.667 138.798 119.523 140.221 118.73C141.668 117.913 143.325 117.505 145.191 117.505C147.011 117.505 148.621 117.902 150.021 118.695C151.421 119.488 152.495 120.585 153.241 121.985C154.011 123.362 154.396 124.925 154.396 126.675ZM151.106 126.01C151.106 124.797 150.838 123.758 150.301 122.895C149.765 122.008 149.03 121.343 148.096 120.9C147.186 120.433 146.171 120.2 145.051 120.2C143.441 120.2 142.065 120.713 140.921 121.74C139.801 122.767 139.16 124.19 138.996 126.01H151.106ZM167.945 117.47C170.279 117.47 172.169 118.182 173.615 119.605C175.062 121.005 175.785 123.035 175.785 125.695V137H172.635V126.15C172.635 124.237 172.157 122.778 171.2 121.775C170.244 120.748 168.937 120.235 167.28 120.235C165.6 120.235 164.259 120.76 163.255 121.81C162.275 122.86 161.785 124.388 161.785 126.395V137H158.6V117.82H161.785V120.55C162.415 119.57 163.267 118.812 164.34 118.275C165.437 117.738 166.639 117.47 167.945 117.47ZM184.873 120.445V131.75C184.873 132.683 185.071 133.348 185.468 133.745C185.865 134.118 186.553 134.305 187.533 134.305H189.878V137H187.008C185.235 137 183.905 136.592 183.018 135.775C182.131 134.958 181.688 133.617 181.688 131.75V120.445H179.203V117.82H181.688V112.99H184.873V117.82H189.878V120.445H184.873ZM201.878 124.785C201.878 122.405 202.415 120.27 203.488 118.38C204.561 116.467 206.02 114.973 207.863 113.9C209.73 112.827 211.795 112.29 214.058 112.29C216.718 112.29 219.04 112.932 221.023 114.215C223.006 115.498 224.453 117.318 225.363 119.675H221.548C220.871 118.205 219.891 117.073 218.608 116.28C217.348 115.487 215.831 115.09 214.058 115.09C212.355 115.09 210.826 115.487 209.473 116.28C208.12 117.073 207.058 118.205 206.288 119.675C205.518 121.122 205.133 122.825 205.133 124.785C205.133 126.722 205.518 128.425 206.288 129.895C207.058 131.342 208.12 132.462 209.473 133.255C210.826 134.048 212.355 134.445 214.058 134.445C215.831 134.445 217.348 134.06 218.608 133.29C219.891 132.497 220.871 131.365 221.548 129.895H225.363C224.453 132.228 223.006 134.037 221.023 135.32C219.04 136.58 216.718 137.21 214.058 137.21C211.795 137.21 209.73 136.685 207.863 135.635C206.02 134.562 204.561 133.08 203.488 131.19C202.415 129.3 201.878 127.165 201.878 124.785ZM238.469 137.315C236.673 137.315 235.039 136.907 233.569 136.09C232.123 135.273 230.979 134.118 230.139 132.625C229.323 131.108 228.914 129.358 228.914 127.375C228.914 125.415 229.334 123.688 230.174 122.195C231.038 120.678 232.204 119.523 233.674 118.73C235.144 117.913 236.789 117.505 238.609 117.505C240.429 117.505 242.074 117.913 243.544 118.73C245.014 119.523 246.169 120.667 247.009 122.16C247.873 123.653 248.304 125.392 248.304 127.375C248.304 129.358 247.861 131.108 246.974 132.625C246.111 134.118 244.933 135.273 243.439 136.09C241.946 136.907 240.289 137.315 238.469 137.315ZM238.469 134.515C239.613 134.515 240.686 134.247 241.689 133.71C242.693 133.173 243.498 132.368 244.104 131.295C244.734 130.222 245.049 128.915 245.049 127.375C245.049 125.835 244.746 124.528 244.139 123.455C243.533 122.382 242.739 121.588 241.759 121.075C240.779 120.538 239.718 120.27 238.574 120.27C237.408 120.27 236.334 120.538 235.354 121.075C234.398 121.588 233.628 122.382 233.044 123.455C232.461 124.528 232.169 125.835 232.169 127.375C232.169 128.938 232.449 130.257 233.009 131.33C233.593 132.403 234.363 133.208 235.319 133.745C236.276 134.258 237.326 134.515 238.469 134.515ZM275.557 117.47C277.05 117.47 278.38 117.785 279.547 118.415C280.714 119.022 281.635 119.943 282.312 121.18C282.989 122.417 283.327 123.922 283.327 125.695V137H280.177V126.15C280.177 124.237 279.699 122.778 278.742 121.775C277.809 120.748 276.537 120.235 274.927 120.235C273.27 120.235 271.952 120.772 270.972 121.845C269.992 122.895 269.502 124.423 269.502 126.43V137H266.352V126.15C266.352 124.237 265.874 122.778 264.917 121.775C263.984 120.748 262.712 120.235 261.102 120.235C259.445 120.235 258.127 120.772 257.147 121.845C256.167 122.895 255.677 124.423 255.677 126.43V137H252.492V117.82H255.677V120.585C256.307 119.582 257.147 118.812 258.197 118.275C259.27 117.738 260.449 117.47 261.732 117.47C263.342 117.47 264.765 117.832 266.002 118.555C267.239 119.278 268.16 120.34 268.767 121.74C269.304 120.387 270.19 119.337 271.427 118.59C272.664 117.843 274.04 117.47 275.557 117.47ZM311.616 117.47C313.11 117.47 314.44 117.785 315.606 118.415C316.773 119.022 317.695 119.943 318.371 121.18C319.048 122.417 319.386 123.922 319.386 125.695V137H316.236V126.15C316.236 124.237 315.758 122.778 314.801 121.775C313.868 120.748 312.596 120.235 310.986 120.235C309.33 120.235 308.011 120.772 307.031 121.845C306.051 122.895 305.561 124.423 305.561 126.43V137H302.411V126.15C302.411 124.237 301.933 122.778 300.976 121.775C300.043 120.748 298.771 120.235 297.161 120.235C295.505 120.235 294.186 120.772 293.206 121.845C292.226 122.895 291.736 124.423 291.736 126.43V137H288.551V117.82H291.736V120.585C292.366 119.582 293.206 118.812 294.256 118.275C295.33 117.738 296.508 117.47 297.791 117.47C299.401 117.47 300.825 117.832 302.061 118.555C303.298 119.278 304.22 120.34 304.826 121.74C305.363 120.387 306.25 119.337 307.486 118.59C308.723 117.843 310.1 117.47 311.616 117.47ZM341.621 117.82V137H338.436V134.165C337.829 135.145 336.978 135.915 335.881 136.475C334.808 137.012 333.618 137.28 332.311 137.28C330.818 137.28 329.476 136.977 328.286 136.37C327.096 135.74 326.151 134.807 325.451 133.57C324.774 132.333 324.436 130.828 324.436 129.055V117.82H327.586V128.635C327.586 130.525 328.064 131.983 329.021 133.01C329.978 134.013 331.284 134.515 332.941 134.515C334.644 134.515 335.986 133.99 336.966 132.94C337.946 131.89 338.436 130.362 338.436 128.355V117.82H341.621ZM356.344 117.47C358.677 117.47 360.567 118.182 362.014 119.605C363.46 121.005 364.184 123.035 364.184 125.695V137H361.034V126.15C361.034 124.237 360.555 122.778 359.599 121.775C358.642 120.748 357.335 120.235 355.679 120.235C353.999 120.235 352.657 120.76 351.654 121.81C350.674 122.86 350.184 124.388 350.184 126.395V137H346.999V117.82H350.184V120.55C350.814 119.57 351.665 118.812 352.739 118.275C353.835 117.738 355.037 117.47 356.344 117.47ZM371.031 114.705C370.425 114.705 369.911 114.495 369.491 114.075C369.071 113.655 368.861 113.142 368.861 112.535C368.861 111.928 369.071 111.415 369.491 110.995C369.911 110.575 370.425 110.365 371.031 110.365C371.615 110.365 372.105 110.575 372.501 110.995C372.921 111.415 373.131 111.928 373.131 112.535C373.131 113.142 372.921 113.655 372.501 114.075C372.105 114.495 371.615 114.705 371.031 114.705ZM372.571 117.82V137H369.386V117.82H372.571ZM381.885 120.445V131.75C381.885 132.683 382.083 133.348 382.48 133.745C382.876 134.118 383.565 134.305 384.545 134.305H386.89V137H384.02C382.246 137 380.916 136.592 380.03 135.775C379.143 134.958 378.7 133.617 378.7 131.75V120.445H376.215V117.82H378.7V112.99H381.885V117.82H386.89V120.445H381.885ZM407.269 117.82L395.719 146.03H392.429L396.209 136.79L388.474 117.82H392.009L398.029 133.36L403.979 117.82H407.269Z" fill="white"/>
</svg>
